<svg width="48" height="64" viewBox="0 0 48 64" fill="none" xmlns="http://www.w3.org/2000/svg">
<path d="M23.6969 13.0038C18.1062 12.9219 10.3404 13.0417 8.74163 17.3366L4.81322 26.5549C4.63874 26.3559 4.41038 26.2117 4.15571 26.1396L2.57408 25.6947C2.40017 25.6453 2.21823 25.6308 2.03871 25.652C1.85918 25.6731 1.68559 25.7295 1.52792 25.818C1.37025 25.9064 1.23159 26.0251 1.11992 26.1672C1.00824 26.3094 0.925742 26.4722 0.877156 26.6463L0.0521156 29.5763C0.00277049 29.7502 -0.0117286 29.9322 0.00945204 30.1117C0.0306327 30.2913 0.0870754 30.4649 0.175538 30.6226C0.264001 30.7802 0.382741 30.9189 0.52494 31.0305C0.667139 31.1422 0.829996 31.2247 1.00416 31.2732L2.58624 31.7181C2.63938 31.733 2.69162 31.738 2.74476 31.7461C2.44258 32.4995 2.25388 33.3281 2.25388 33.8213V44.5347C2.25388 45.0841 2.48356 45.3381 2.85014 45.4574V48.3117C2.84967 48.565 2.89921 48.8159 2.99594 49.05C3.09267 49.2841 3.23467 49.4968 3.41379 49.6759C3.59292 49.855 3.80565 49.997 4.03977 50.0936C4.27389 50.1903 4.5248 50.2398 4.77809 50.2393H9.95127C10.2045 50.2397 10.4554 50.1902 10.6895 50.0935C10.9235 49.9968 11.1362 49.8548 11.3153 49.6758C11.4944 49.4967 11.6363 49.284 11.733 49.0499C11.8297 48.8159 11.8792 48.565 11.8788 48.3117V45.5619H36.1211V48.3117C36.1207 48.5651 36.1703 48.816 36.2671 49.0501C36.3639 49.2842 36.5059 49.4969 36.6851 49.6759C36.8642 49.855 37.077 49.997 37.3111 50.0936C37.5453 50.1903 37.7962 50.2398 38.0495 50.2393H43.2218C43.4752 50.2398 43.7261 50.1904 43.9603 50.0938C44.1945 49.9971 44.4073 49.8552 44.5866 49.6761C44.7658 49.497 44.9078 49.2843 45.0047 49.0502C45.1015 48.816 45.1511 48.5651 45.1507 48.3117V45.4574C45.5168 45.3381 45.746 45.0836 45.746 44.5342V33.8217C45.746 33.3286 45.5573 32.4999 45.2551 31.7465C45.3083 31.7384 45.3605 31.733 45.4137 31.7186L46.9962 31.2736C47.1703 31.2251 47.3331 31.1426 47.4753 31.0309C47.6174 30.9192 47.7361 30.7805 47.8245 30.6229C47.9129 30.4652 47.9694 30.2916 47.9905 30.1121C48.0117 29.9326 47.9971 29.7506 47.9478 29.5767L47.1236 26.6467C47.075 26.4726 46.9924 26.3098 46.8806 26.1676C46.7688 26.0254 46.6301 25.9068 46.4724 25.8183C46.3146 25.7299 46.141 25.6735 45.9614 25.6524C45.7818 25.6313 45.5998 25.6458 45.4258 25.6952L43.8442 26.1401C43.5895 26.2121 43.3612 26.3563 43.1867 26.5553L39.2583 17.3371C37.5447 12.9773 29.2875 13.0867 23.6969 13.0047V13.0038ZM39.7086 27.1372C39.8014 27.4137 39.5231 27.5974 39.2317 27.6145C39.2317 27.6145 38.2792 27.6956 36.966 27.8014C35.9667 25.4664 33.6442 23.8212 30.9538 23.8212C28.0018 23.8212 25.4951 25.8037 24.6912 28.5031C24.4683 28.5062 24.2094 28.5152 24.0022 28.5152C18.9164 28.5152 8.7682 27.6145 8.7682 27.6145C8.47682 27.5974 8.1985 27.4137 8.29128 27.1372C12.1999 15.2232 12.3161 16.1184 23.7833 16.2436C35.2511 16.3688 35.3177 15.5177 39.7086 27.1372ZM30.9538 26.073C31.6619 26.0705 32.3594 26.2443 32.9835 26.5788C33.6076 26.9132 34.1387 27.3978 34.5287 27.9888C32.2319 28.159 29.5883 28.3333 27.1249 28.4346C27.4794 27.723 28.0258 27.1248 28.7024 26.7074C29.379 26.2901 30.1588 26.0703 30.9538 26.073ZM4.51554 29.9397C4.55022 29.9906 4.58399 30.0419 4.62227 30.0919H4.47365L4.51554 29.9397ZM7.05687 32.9318C8.06295 32.9152 13.464 34.7332 13.464 34.7332C14.1382 34.9228 14.7322 36.1982 14.7286 36.899C14.7187 39.2588 8.62814 38.4401 6.15617 38.4495C5.98996 38.4499 5.82531 38.4175 5.67167 38.3541C5.51803 38.2907 5.37843 38.1976 5.26088 38.0801C5.14334 37.9626 5.05016 37.823 4.98671 37.6694C4.92326 37.5158 4.89077 37.3511 4.89113 37.1849V34.1969C4.89113 33.4961 6.05078 32.9485 7.05687 32.9318ZM40.9439 32.9318C41.95 32.9485 43.1097 33.4961 43.1097 34.1969V37.1849C43.11 37.3511 43.0775 37.5158 43.0141 37.6694C42.9506 37.823 42.8575 37.9626 42.7399 38.0801C42.6224 38.1976 42.4828 38.2907 42.3291 38.3541C42.1755 38.4175 42.0108 38.4499 41.8446 38.4495C39.3722 38.4401 33.2821 39.2588 33.2722 36.899C33.2686 36.1982 33.8622 34.9228 34.5368 34.7332C34.5368 34.7332 39.9379 32.9152 40.9439 32.9318Z" fill="#80B049"/>
</svg>
