<svg width="77" height="72" viewBox="0 0 77 72" fill="none" xmlns="http://www.w3.org/2000/svg">
<path d="M56.5536 9.08628C51.193 9.08628 46.1268 11.1199 42.2871 14.8133C39.1691 17.8127 37.1374 21.6379 36.4084 25.8003C35.8622 25.1933 35.2969 24.573 34.7127 23.9412C36.3036 23.188 37.4062 21.5819 37.4062 19.7256C37.4062 17.2396 35.4299 15.2016 32.9469 15.062L36.546 11.5077C38.4279 9.64913 38.4279 6.62479 36.546 4.76669C34.9533 3.19384 32.4197 2.92475 30.5231 4.1276C30.3397 4.24334 30.1687 4.25885 29.9685 4.17633C29.7677 4.09437 29.6567 3.96367 29.6107 3.75377C29.1301 1.57895 27.146 0 24.8944 0C22.6422 0 20.6593 1.57895 20.1781 3.75377C20.1321 3.96367 20.0217 4.0938 19.8215 4.17578C19.6241 4.25663 19.4469 4.24113 19.2663 4.12704C17.3697 2.92472 14.8361 3.19333 13.2434 4.76614C11.3615 6.62466 11.3615 9.649 13.2434 11.5071L16.8425 15.0614C14.3593 15.2004 12.3832 17.2389 12.3832 19.7251C12.3832 21.5809 13.4852 23.1881 15.0767 23.9406C9.4257 30.0497 5.59102 34.9697 3.08372 39.3175C-0.946058 46.3043 -1.02961 54.0224 2.85267 60.493C7.12923 67.6204 15.3705 72 24.4444 72C24.5935 72 24.7444 71.9995 24.893 71.9967C25.0427 71.9989 25.1919 72 25.3416 72C34.4146 72 42.658 67.6194 46.9333 60.493C49.195 56.7232 50.1079 52.5303 49.6812 48.3053C51.8755 49.0812 54.1776 49.4739 56.5525 49.4739C67.8277 49.4739 77 40.4147 77 29.2809C76.9994 18.1466 67.8277 9.08647 56.5525 9.08647L56.5536 9.08628ZM14.9982 6.50116C15.771 5.73802 17.0007 5.60787 17.9227 6.19158C18.7852 6.73819 19.8226 6.83012 20.7698 6.4419C21.717 6.05478 22.3843 5.26506 22.6031 4.27657C22.837 3.21991 23.7998 2.45292 24.8928 2.45292C25.9857 2.45292 26.9486 3.21939 27.1824 4.27657C27.4011 5.26568 28.069 6.05485 29.0161 6.44247C29.9622 6.82958 31.0007 6.73875 31.8633 6.19215C32.7846 5.60843 34.0144 5.73803 34.7878 6.50173C35.7013 7.40388 35.7013 8.87093 34.7878 9.77361L29.4407 15.0542H20.3457L14.9981 9.77361C14.0845 8.87145 14.0847 7.40384 14.9982 6.50116ZM17.1119 17.5076H32.674C33.9127 17.5076 34.92 18.5022 34.92 19.7256C34.92 20.949 33.9128 21.9437 32.674 21.9437H17.1119C15.8731 21.9437 14.8658 20.9491 14.8658 19.7256C14.8658 18.5023 15.8736 17.5076 17.1119 17.5076ZM44.7963 59.2418C40.8999 65.7347 33.2817 69.6828 24.913 69.542H24.871C24.728 69.5443 24.5855 69.5454 24.4419 69.5454C16.2433 69.5454 8.81669 65.6227 4.98646 59.2406C1.52131 53.4665 1.61161 46.822 5.23937 40.5306C7.81458 36.0664 11.8836 30.9297 18.0237 24.3952H31.7568C37.8969 30.9296 41.9659 36.0661 44.5411 40.5306C48.1711 46.8235 48.2614 53.4681 44.7957 59.242L44.7963 59.2418ZM42.837 29.2791C42.837 21.8104 48.9899 15.7335 56.5533 15.7335C64.1161 15.7335 70.2696 21.8099 70.2696 29.2791C70.2696 36.749 64.1167 42.8247 56.5533 42.8247C48.9893 42.8247 42.837 36.7478 42.837 29.2791ZM56.5527 47.0194C53.9827 47.0194 51.5107 46.4966 49.194 45.4665C49.0056 44.6934 48.7718 43.9215 48.4942 43.1549C50.8691 44.5056 53.6209 45.2787 56.5527 45.2787C65.4856 45.2787 72.7537 38.1019 72.7537 29.2794C72.7537 20.4578 65.4864 13.2801 56.5527 13.2801C47.6199 13.2801 40.3518 20.4569 40.3518 29.2794C40.3518 29.6654 40.3669 30.0475 40.3938 30.4275C39.8286 29.738 39.2364 29.033 38.615 28.3096C39.123 18.8683 46.9141 11.5391 56.553 11.5391C66.4582 11.5391 74.5169 19.4973 74.5169 29.2794C74.5169 39.0613 66.4583 47.0182 56.553 47.0182L56.5527 47.0194ZM55.3106 29.2791V23.6901C55.3106 23.0128 55.8669 22.4634 56.5527 22.4634C57.2386 22.4634 57.7949 23.0128 57.7949 23.6901V28.5714L60.9521 30.3718C61.5459 30.7107 61.7501 31.4611 61.4069 32.047C61.1764 32.4407 60.7597 32.6606 60.3302 32.6606C60.1193 32.6606 59.9056 32.6074 59.7105 32.4961L55.9319 30.3419C55.5478 30.122 55.3106 29.7178 55.3106 29.2791ZM55.3106 18.7928V17.5173C55.3106 16.84 55.8669 16.2907 56.5527 16.2907C57.2386 16.2907 57.7949 16.84 57.7949 17.5173V18.7928C57.7949 19.4701 57.2386 20.0194 56.5527 20.0194C55.8669 20.0189 55.3106 19.4701 55.3106 18.7928ZM63.1829 22.7314C62.6978 22.2524 62.6978 21.4759 63.1829 20.9964L64.0959 20.0948C64.581 19.6157 65.3672 19.6157 65.8528 20.0948C66.3379 20.5738 66.3379 21.3502 65.8528 21.8298L64.9398 22.7314C64.697 22.9712 64.3796 23.0903 64.0611 23.0903C63.7431 23.0908 63.4258 22.9706 63.1829 22.7314ZM63.1829 37.5625C62.6978 37.0834 62.6978 36.307 63.1829 35.8274C63.6686 35.3484 64.4548 35.3484 64.9398 35.8274L65.8528 36.729C66.3379 37.2081 66.3379 37.9845 65.8528 38.4641C65.61 38.7039 65.2926 38.8229 64.9741 38.8229C64.6561 38.8229 64.3387 38.7027 64.0953 38.4641L63.1829 37.5625ZM49.9226 35.8274C50.4076 36.3065 50.4076 37.0829 49.9226 37.5625L49.0096 38.4641C48.7668 38.7039 48.4494 38.8229 48.1308 38.8229C47.8129 38.8229 47.4955 38.7027 47.2521 38.4641C46.767 37.985 46.767 37.2086 47.2521 36.729L48.1651 35.8274C48.6513 35.3484 49.4375 35.3484 49.9226 35.8274ZM47.2526 21.831C46.7675 21.3519 46.7675 20.5755 47.2526 20.0959C47.7377 19.6169 48.5245 19.6169 49.0095 20.0959L49.9225 20.9976C50.4076 21.4766 50.4076 22.253 49.9225 22.7326C49.6797 22.9724 49.3623 23.0914 49.0437 23.0914C48.7258 23.0914 48.4084 22.9713 48.165 22.7326L47.2526 21.831ZM65.93 29.2797C65.93 28.6024 66.4863 28.053 67.1721 28.053H68.4636C69.1495 28.053 69.7058 28.6024 69.7058 29.2797C69.7058 29.957 69.1495 30.5064 68.4636 30.5064H67.1721C66.4857 30.5064 65.93 29.957 65.93 29.2797ZM55.3109 41.0409V39.7655C55.3109 39.0882 55.8672 38.5388 56.553 38.5388C57.2388 38.5388 57.7951 39.0882 57.7951 39.7655V41.0409C57.7951 41.7182 57.2388 42.2676 56.553 42.2676C55.8672 42.2681 55.3109 41.7188 55.3109 41.0409ZM47.1767 29.2797C47.1767 29.957 46.6204 30.5064 45.9345 30.5064H44.643C43.9572 30.5064 43.4009 29.957 43.4009 29.2797C43.4009 28.6024 43.9572 28.053 44.643 28.053H45.9345C46.6198 28.0536 47.1767 28.6024 47.1767 29.2797ZM32.0811 51.1867C32.2589 52.6321 31.8669 53.9513 30.9467 55.0019C29.8733 56.2275 28.0945 57.051 26.0685 57.2886V58.7667C26.0685 59.444 25.5122 59.9934 24.8263 59.9934C24.1405 59.9934 23.5842 59.444 23.5842 58.7667V57.2714C20.5783 56.8522 18.2438 54.9682 17.5664 52.2826C17.4004 51.6253 17.8058 50.9596 18.4709 50.7957C19.1377 50.6318 19.8106 51.0322 19.9766 51.689C20.5946 54.1363 23.0935 54.9498 25.0433 54.9045C26.7207 54.8646 28.3009 54.2737 29.0669 53.3975C29.529 52.8698 29.7085 52.244 29.6148 51.483C29.3927 49.6754 27.8585 48.6365 24.6423 48.1153C19.4651 47.2757 18.2599 44.6784 18.1596 42.647C18.0216 39.8325 20.0147 37.474 23.1209 36.7783C23.2735 36.7445 23.4277 36.7146 23.5847 36.6897V35.1761C23.5847 34.4988 24.141 33.9494 24.8268 33.9494C25.5127 33.9494 26.069 34.4988 26.069 35.1761V36.6786C28.2729 37.0103 30.442 38.278 31.5294 40.8339C31.7946 41.458 31.4974 42.178 30.8654 42.4399C30.2339 42.7019 29.5055 42.4083 29.2391 41.7842C28.2039 39.3496 25.6966 38.7178 23.6716 39.1707C22.144 39.513 20.5469 40.5741 20.6428 42.5274C20.6731 43.1388 20.7645 44.9997 25.0461 45.6941C26.65 45.9532 31.5349 46.7452 32.0811 51.1867Z" fill="#80B049"/>
</svg>
