<svg width="150" height="150" viewBox="0 0 150 150" fill="none" xmlns="http://www.w3.org/2000/svg">
<path d="M75.4286 100.857V109.514M75.4286 57.9143V65.9714M75.4286 130.6C105.429 130.6 126.857 119.971 126.857 96.3143C126.857 70.6 114 53.4571 88.2857 40.6L98.4 27.5714C98.9138 26.7166 99.1925 25.7411 99.2079 24.7439C99.2232 23.7466 98.9746 22.763 98.4873 21.8928C98 21.0226 97.2912 20.2967 96.433 19.7887C95.5747 19.2807 94.5973 19.0086 93.6 19H57.2571C56.2598 19.0086 55.2825 19.2807 54.4242 19.7887C53.5659 20.2967 52.8572 21.0226 52.3699 21.8928C51.8825 22.763 51.6339 23.7466 51.6493 24.7439C51.6646 25.7411 51.9433 26.7166 52.4571 27.5714L62.5714 40.6857C36.8571 53.6286 24 70.7714 24 96.4857C24 119.971 45.4286 130.6 75.4286 130.6Z" stroke="#80B049" stroke-width="9" stroke-linecap="round" stroke-linejoin="round"/>
<path d="M66.8571 96.9143C67.903 98.1557 69.2193 99.1411 70.7051 99.7949C72.1909 100.449 73.8067 100.753 75.4286 100.686C77.9075 100.855 80.3554 100.056 82.2576 98.4575C84.1598 96.859 85.3681 94.5853 85.6286 92.1143C85.3681 89.6433 84.1598 87.3696 82.2576 85.7711C80.3554 84.1726 77.9075 83.3739 75.4286 83.5429C72.9497 83.7118 70.5018 82.9131 68.5996 81.3146C66.6974 79.7161 65.489 77.4424 65.2286 74.9714C65.4681 72.4918 66.6706 70.205 68.5778 68.6023C70.485 66.9996 72.9447 66.2089 75.4286 66.4C77.0219 66.3025 78.617 66.5595 80.0991 67.1523C81.5812 67.7451 82.9135 68.6592 84 69.8286" stroke="#80B049" stroke-width="9" stroke-linecap="round" stroke-linejoin="round"/>
</svg>
