<svg width="19" height="13" viewBox="0 0 19 13" fill="none" xmlns="http://www.w3.org/2000/svg">
<path d="M18.4281 2.08205C18.2765 2.00497 18.1016 2.01947 17.9634 2.12009L13.0978 5.6929L9.69516 1.01365C9.61008 0.897324 9.47668 0.829102 9.33309 0.829102C9.1903 0.829102 9.0561 0.897324 8.97142 1.01365L5.56642 5.6929L0.698174 2.12009C0.563971 2.01947 0.390628 2.00497 0.23865 2.08205C0.0866716 2.15994 0 2.31571 0 2.48455V9.71023C0 9.95998 0.187724 10.1624 0.433363 10.1624H18.2319C18.4789 10.1624 18.6665 9.95998 18.6665 9.71023L18.6667 2.48455C18.6665 2.31571 18.5802 2.15994 18.4278 2.08205H18.4281Z" fill="#DAB44B"/>
<path d="M18.2321 11.4956H0.433368C0.187726 11.4956 0 11.6801 0 11.9156V12.4156C0 12.6511 0.187726 12.8289 0.433368 12.8289H18.2321C18.4791 12.8289 18.6667 12.6511 18.6667 12.4156V11.9156C18.6665 11.6801 18.4791 11.4956 18.2321 11.4956Z" fill="#DAB44B"/>
</svg>
