<svg width="1728" height="246" viewBox="0 0 1728 246" fill="none" xmlns="http://www.w3.org/2000/svg">
<path d="M1728 185.255C1624.42 112.149 1434.95 71.6802 1260.63 87.3456C1083.79 103.011 922.105 176.116 785.684 200.92C649.263 224.418 540.632 200.92 391.579 193.087C245.053 185.255 58.1053 194.393 0 244" stroke="#3B5384" stroke-width="4"/>
<path d="M1728 106.606C1684.66 133.504 1540.17 151.437 1392.8 165.783C1245.43 179.531 1098.06 189.095 953.579 187.899C809.097 186.106 670.395 172.358 531.692 157.414C390.1 142.47 251.398 126.331 170.488 101.226C89.5786 76.1206 66.4615 43.2445 0 2" stroke="#80B049" stroke-width="4" stroke-dasharray="4 4"/>
<circle cx="864" cy="148" r="72" fill="white"/>
<path d="M864.202 76C824.347 76 792 108.347 792 148.202C792 188.058 824.347 220.405 864.202 220.405C904.058 220.405 936.405 188.058 936.405 148.202C936.405 108.347 904.058 76 864.202 76ZM889.69 155.639L868.029 177.3C866.946 178.383 865.574 178.888 864.202 178.888C862.831 178.888 861.459 178.383 860.376 177.3L838.715 155.639C836.621 153.545 836.621 150.08 838.715 147.986C840.809 145.892 844.275 145.892 846.368 147.986L858.787 160.405V122.932C858.787 119.971 861.242 117.516 864.202 117.516C867.163 117.516 869.618 119.971 869.618 122.932V160.405L882.036 147.986C884.13 145.892 887.596 145.892 889.69 147.986C891.784 150.08 891.784 153.545 889.69 155.639Z" fill="#80B049"/>
</svg>
