<svg width="45" height="45" viewBox="0 0 45 45" fill="none" xmlns="http://www.w3.org/2000/svg">
<rect width="44.8" height="44.8" rx="22.4" fill="#80B049"/>
<g clip-path="url(#clip0_801_375)">
<path d="M28.6667 17.6666H20C19.2667 17.6666 18.6667 18.2666 18.6667 19V25C18.6667 25.3536 18.8071 25.6927 19.0572 25.9428C19.3072 26.1928 19.6464 26.3333 20 26.3333H28.6667C29.4067 26.3333 30 25.74 30 25V19C30 18.6463 29.8595 18.3072 29.6095 18.0572C29.3594 17.8071 29.0203 17.6666 28.6667 17.6666ZM28.6667 20.1133L24.3333 22.3333L20 20.1133V19L24.3333 21.2066L28.6667 19V20.1133ZM17.3333 25C17.3333 25.1133 17.3533 25.22 17.3667 25.3333H14.6667C14.2987 25.3333 14 25.0333 14 24.6666C14 24.3 14.2987 24 14.6667 24H17.3333V25ZM16 18.6666H17.3667C17.3533 18.78 17.3333 18.8866 17.3333 19V20H16C15.6333 20 15.3333 19.7 15.3333 19.3333C15.3333 18.9666 15.6333 18.6666 16 18.6666ZM14.6667 22C14.6667 21.6333 14.9667 21.3333 15.3333 21.3333H17.3333V22.6666H15.3333C14.9667 22.6666 14.6667 22.3666 14.6667 22Z" fill="white"/>
</g>
<defs>
<clipPath id="clip0_801_375">
<rect width="16" height="16" fill="white" transform="translate(14 14)"/>
</clipPath>
</defs>
</svg>
