<svg width="150" height="150" viewBox="0 0 150 150" fill="none" xmlns="http://www.w3.org/2000/svg">
<path d="M56.25 31.25H43.75C40.4348 31.25 37.2554 32.567 34.9112 34.9112C32.567 37.2554 31.25 40.4348 31.25 43.75V118.75C31.25 122.065 32.567 125.245 34.9112 127.589C37.2554 129.933 40.4348 131.25 43.75 131.25H106.25C109.565 131.25 112.745 129.933 115.089 127.589C117.433 125.245 118.75 122.065 118.75 118.75V43.75C118.75 40.4348 117.433 37.2554 115.089 34.9112C112.745 32.567 109.565 31.25 106.25 31.25H93.75" stroke="#80B049" stroke-width="10" stroke-linecap="round" stroke-linejoin="round"/>
<path d="M56.25 87.5H56.3125M56.25 106.25H56.3125M75 100L81.25 106.25L100 87.5M56.25 31.25C56.25 27.9348 57.567 24.7554 59.9112 22.4112C62.2554 20.067 65.4348 18.75 68.75 18.75H81.25C84.5652 18.75 87.7446 20.067 90.0888 22.4112C92.433 24.7554 93.75 27.9348 93.75 31.25C93.75 34.5652 92.433 37.7446 90.0888 40.0888C87.7446 42.433 84.5652 43.75 81.25 43.75H68.75C65.4348 43.75 62.2554 42.433 59.9112 40.0888C57.567 37.7446 56.25 34.5652 56.25 31.25Z" stroke="#80B049" stroke-width="10" stroke-linecap="round" stroke-linejoin="round"/>
</svg>
