<svg width="150" height="150" viewBox="0 0 150 150" fill="none" xmlns="http://www.w3.org/2000/svg">
<path d="M39.9794 68.1281L37.5537 77.1847C36.9658 79.3819 36.8447 81.6553 37.083 83.9014L30.2081 89.5614C28.9249 90.6181 27.0226 89.4774 27.3526 87.8486L30.3682 72.8722C30.5753 71.8449 29.8487 70.8644 28.8057 70.7648L13.5989 69.2902C11.9446 69.1301 11.4056 66.9797 12.7903 66.0598L25.5148 57.6029C26.3859 57.0228 26.5655 55.8158 25.9015 55.0072L16.1926 43.2086C15.136 41.9254 16.2766 40.025 17.9074 40.3532L32.8838 43.3687C33.9112 43.5758 34.8916 42.8492 34.9932 41.8063L36.4678 26.5994C36.6279 24.9432 38.7783 24.4061 39.7001 25.7909L48.1571 38.5133C48.7371 39.3844 49.9442 39.5641 50.7528 38.9L62.5495 29.1912C63.8327 28.1346 65.733 29.2752 65.4049 30.9041L63.1921 41.8727C62.6628 42.4684 62.1315 43.0621 61.6472 43.7086L55.3679 52.101L53.2762 54.8979C46.8837 56.6088 41.7177 61.6419 39.9794 68.1281ZM136.574 94.0086L134.148 103.063C133.537 105.344 132.316 107.284 130.721 108.797C130.19 109.3 129.617 109.758 129.01 110.165L126.277 120.366C126.055 121.2 125.672 121.948 125.174 122.588C123.676 124.51 121.123 125.455 118.623 124.786L112.586 123.168C109.252 122.276 107.274 118.848 108.166 115.514L109.783 109.477L61.487 96.5359L59.8698 102.573C58.9773 105.907 55.5496 107.885 52.2156 106.993L46.1786 105.376C43.6786 104.706 41.9404 102.61 41.6044 100.198C41.4931 99.3933 41.5361 98.5535 41.7587 97.7215L44.4911 87.5204C44.1679 86.8638 43.9007 86.181 43.6923 85.4795C43.0673 83.3721 42.9794 81.0811 43.5907 78.7999L46.0165 69.7434C47.0536 65.8762 49.7977 62.9407 53.2215 61.4993C54.3727 61.0142 55.5899 60.7035 56.8328 60.5775L60.3737 55.8451L66.6529 47.4527C67.3268 46.5523 68.0572 45.7144 68.8404 44.9449C70.4029 43.4039 72.1666 42.1246 74.063 41.1344C75.0122 40.6383 75.9946 40.2145 77.0024 39.8668C79.02 39.1676 81.1411 38.7672 83.2992 38.6872C85.4574 38.6071 87.6566 38.8473 89.8285 39.4293L113.789 45.8492C115.961 46.4312 117.984 47.3218 119.814 48.4722C122.545 50.1869 124.86 52.4888 126.59 55.2104C128.312 57.9213 129.449 61.0384 129.848 64.388L131.09 74.796L131.791 80.6651C133.819 82.1294 135.365 84.1644 136.232 86.5107C137.09 88.831 137.265 91.4305 136.574 94.0086ZM61.9186 70.7707C58.2956 69.8 55.2371 71.5597 54.2683 75.171C53.2996 78.7823 55.0711 81.835 58.6921 82.8057C62.3151 83.7764 67.5865 85.8349 68.5533 82.2236C69.522 78.6124 65.5397 71.7414 61.9186 70.7707ZM118.678 76.2726L117.436 65.8645C117.322 64.9133 117.066 64.0032 116.689 63.1575C115.557 60.6204 113.33 58.6634 110.553 57.9193L86.5922 51.4995C84.7823 51.0147 82.8687 51.0832 81.0981 51.6962C79.3276 52.3093 77.7813 53.4387 76.6587 54.9389L70.3795 63.3313L103.973 72.3312L118.678 76.2726ZM122.289 86.9462C118.666 85.9755 111.781 89.9364 110.815 93.5458C109.848 97.157 115.441 98.0105 119.064 98.9812C122.687 99.9519 125.746 98.1922 126.715 94.5809C127.682 90.9716 125.912 87.9169 122.289 86.9462Z" fill="#80B049"/>
</svg>
