<svg width="72" height="72" viewBox="0 0 72 72" fill="none" xmlns="http://www.w3.org/2000/svg">
<path d="M68.3989 0H3.59994C1.6363 0 0 1.63632 0 3.59998V53.4546C0 55.4183 1.6363 57.0546 3.59994 57.0546H27.7093L24.6547 63.3817H23.3454C19.2 63.3817 15.818 66.7638 15.818 70.9092C15.818 71.5636 16.2545 72 16.9089 72H55.0901C55.7445 72 56.181 71.5636 56.181 70.9092V70.6912C56.072 66.6547 52.69 63.3822 48.6536 63.3822H47.3443L44.2897 57.0551H68.399C70.3627 57.0551 71.999 55.4188 71.999 53.4551L72 3.60046C72 1.6368 70.3637 0.000475712 68.4001 0.000475712L68.3989 0ZM3.59994 2.18172H68.3989C69.1623 2.18172 69.8172 2.83663 69.8172 3.59998V43.4184H2.18195V3.59998C2.18195 2.8366 2.83686 2.18172 3.6002 2.18172H3.59994ZM53.8899 69.8177H18.109C18.6544 67.4176 20.7271 65.5633 23.3453 65.5633H48.7634C51.2731 65.5628 53.4547 67.4176 53.8912 69.8177H53.8899ZM44.9443 63.3812H27.0538L30.1084 57.0541H41.7811L44.9443 63.3812ZM68.3992 54.8724H3.6002C2.83682 54.8724 2.18195 54.327 2.18195 53.4541V45.4907H69.8172V53.4541C69.8172 54.327 69.1623 54.8724 68.3989 54.8724H68.3992Z" fill="#80B049"/>
<path d="M36.0003 45.8181C34.2151 45.8181 32.7275 47.5182 32.7275 49.5584C32.7275 51.5986 34.2151 53.2986 36.0003 53.2986C37.7854 53.2986 39.273 51.5986 39.273 49.5584C39.273 47.5186 37.7854 45.8181 36.0003 45.8181ZM36.0003 51.0319C35.3063 51.0319 34.7109 50.352 34.7109 49.5584C34.7109 48.7652 35.3058 48.0848 36.0003 48.0848C36.6943 48.0848 37.2896 48.7647 37.2896 49.5584C37.2896 50.4653 36.6942 51.0319 36.0003 51.0319Z" fill="#80B049"/>
<path d="M53.2207 39.2876C53.3291 39.7242 53.6548 40.0512 54.0888 40.0512C54.5229 40.1603 54.9569 39.9422 55.1737 39.6147L57.3434 36.3411L61.7917 40.8154C62.0084 41.0334 62.3341 41.1429 62.5509 41.1429C62.8765 41.1429 63.0933 41.0339 63.3101 40.8154L66.9987 37.1052C67.2155 36.8872 67.3243 36.6686 67.3243 36.3416C67.3243 36.014 67.216 35.796 66.9987 35.5779L62.4425 30.9941L65.697 28.8117C66.0227 28.5937 66.2395 28.1571 66.1311 27.7205C66.0227 27.2839 65.8054 26.9569 65.3719 26.8473L50.0742 22.4825C49.6402 22.3735 49.315 22.4825 48.9893 22.8101C48.6637 23.1376 48.5553 23.4647 48.6637 23.9013L53.2207 39.2876ZM62.6592 28.3752L60.2722 30.012C59.9465 30.2301 59.8382 30.4486 59.8382 30.7757C59.8382 31.1032 59.9465 31.4303 60.1638 31.6488L64.8288 36.3411L62.7675 38.4144L58.1025 33.7222C57.8858 33.5041 57.6685 33.3946 57.3433 33.3946H57.2349C56.9093 33.3946 56.5841 33.6126 56.4757 33.8312L54.8484 36.2321L51.7023 24.9921L62.6592 28.3752Z" fill="#80B049"/>
<path d="M35.5328 28.0519C42.2022 28.0519 47.6886 22.673 47.6886 15.8961C47.6886 9.11914 42.3097 3.74023 35.5328 3.74023C28.8634 3.74023 23.377 9.11914 23.377 15.8961C23.377 22.6735 28.8632 28.0519 35.5328 28.0519ZM35.5328 5.99926C41.0191 5.99926 45.5373 10.5174 45.5373 16.0037C45.5373 21.49 41.0191 26.0082 35.5328 26.0082C30.0465 26.0082 25.5283 21.49 25.5283 16.0037C25.5283 10.5174 30.0465 5.99926 35.5328 5.99926Z" fill="#80B049"/>
<path d="M4.86983 17.7661H19.4418C20.1195 17.7661 20.5714 17.205 20.5714 16.3635C20.5714 15.5221 20.1195 14.9609 19.4418 14.9609H4.86983C4.19218 14.9609 3.74023 15.5221 3.74023 16.3635C3.74023 17.205 4.19165 17.7661 4.86983 17.7661Z" fill="#80B049"/>
<path d="M4.86983 24.3118H19.4418C20.1195 24.3118 20.5714 23.9378 20.5714 23.3769C20.5714 22.8161 20.1195 22.4421 19.4418 22.4421L4.86983 22.4417C4.19218 22.4417 3.74023 22.8157 3.74023 23.3765C3.74023 23.9378 4.19165 24.3118 4.86983 24.3118Z" fill="#80B049"/>
<path d="M4.82363 31.7922H45.6698C46.3198 31.7922 46.7532 31.4181 46.7532 30.8572C46.7532 30.2962 46.3198 29.9221 45.6698 29.9221H4.82363C4.1737 29.9221 3.74023 30.2962 3.74023 30.8572C3.74023 31.4186 4.17319 31.7922 4.82363 31.7922Z" fill="#80B049"/>
<path d="M4.82363 39.2727H45.6698C46.3198 39.2727 46.7532 38.7116 46.7532 37.8701C46.7532 37.0287 46.3198 36.4675 45.6698 36.4675H4.82363C4.1737 36.4675 3.74023 37.0287 3.74023 37.8701C3.74023 38.7116 4.17319 39.2727 4.82363 39.2727Z" fill="#80B049"/>
<path d="M36.0003 11.2207C36.4319 11.2207 36.7552 11.1129 36.9712 10.7891C37.2951 10.4653 37.4029 10.142 37.4029 9.81812C37.4029 9.38652 37.2951 9.06318 36.9712 8.84713C36.6474 8.5233 36.3241 8.41553 36.0003 8.41553C35.5687 8.41553 35.2453 8.5233 35.0293 8.84713C34.7054 9.17097 34.5977 9.49429 34.5977 9.81812C34.5977 10.2497 34.7054 10.5731 35.0293 10.7891C35.2448 11.113 35.5687 11.2207 36.0003 11.2207Z" fill="#80B049"/>
<path d="M34.5977 13.0908H36.4678V23.3765H34.5977V13.0908Z" fill="#80B049"/>
</svg>
