<svg width="181" height="150" viewBox="0 0 181 150" fill="none" xmlns="http://www.w3.org/2000/svg">
<g clip-path="url(#clip0_401_2159)">
<path d="M118.25 37.5625C117 33.875 113.5 31.25 109.375 31.25H40.625C36.5 31.25 33.0625 33.875 31.75 37.5625L18.75 75V121.875C18.75 127.062 22.9375 131.25 28.125 131.25C33.3125 131.25 37.5 127.062 37.5 121.875V118.75H112.5V121.875C112.5 127 116.688 131.25 121.875 131.25C127 131.25 131.25 127.062 131.25 121.875V75L118.25 37.5625ZM46.875 100C41.6875 100 37.5 95.8125 37.5 90.625C37.5 85.4375 41.6875 81.25 46.875 81.25C52.0625 81.25 56.25 85.4375 56.25 90.625C56.25 95.8125 52.0625 100 46.875 100ZM103.125 100C97.9375 100 93.75 95.8125 93.75 90.625C93.75 85.4375 97.9375 81.25 103.125 81.25C108.312 81.25 112.5 85.4375 112.5 90.625C112.5 95.8125 108.312 100 103.125 100ZM36.3125 62.5L42.8125 43.75H107.125L113.625 62.5H36.3125Z" fill="#80B049"/>
</g>
<path d="M121.063 108.333H110.167C107.957 108.333 105.838 107.455 104.275 105.893C102.712 104.33 101.834 102.21 101.834 100V50.0001C101.834 47.7899 102.712 45.6703 104.275 44.1075C105.838 42.5447 107.957 41.6667 110.167 41.6667H143.501C145.711 41.6667 147.83 42.5447 149.393 44.1075C150.956 45.6703 151.834 47.7899 151.834 50.0001V83.3334M139.334 104.167L147.667 112.5L164.334 95.8334M118.501 58.3334H135.167M118.501 75.0001H126.834" stroke="#80B049" stroke-width="9" stroke-linecap="round" stroke-linejoin="round"/>
<defs>
<clipPath id="clip0_401_2159">
<rect width="81" height="150" fill="white"/>
</clipPath>
</defs>
</svg>
