<svg width="150" height="150" viewBox="0 0 150 150" fill="none" xmlns="http://www.w3.org/2000/svg">
<path d="M28.5715 119.929H82.143M75.0001 119.929V102.071H35.7144V119.929" stroke="#80B049" stroke-width="9" stroke-linecap="round" stroke-linejoin="round"/>
<path fill-rule="evenodd" clip-rule="evenodd" d="M43.1916 63.5915C42.224 64.5588 41.4565 65.7073 40.9328 66.9713C40.4092 68.2353 40.1396 69.59 40.1396 70.9582C40.1396 72.3264 40.4092 73.6811 40.9328 74.9451C41.4565 76.2091 42.224 77.3575 43.1916 78.3249L54.9791 90.1082C56.5252 91.6529 58.5179 92.6721 60.6752 93.0217C62.8325 93.3713 65.0452 93.0335 66.9999 92.0561C68.9547 91.0787 70.5525 89.5113 71.5672 87.5757C72.582 85.6401 72.9622 83.4343 72.6541 81.2707L76.7083 77.2165L102.033 106.442C103.08 107.648 104.364 108.627 105.806 109.315C107.247 110.004 108.815 110.389 110.412 110.446C112.008 110.502 113.6 110.229 115.086 109.644C116.573 109.059 117.923 108.174 119.053 107.044C120.182 105.915 121.067 104.564 121.653 103.078C122.238 101.591 122.511 100 122.454 98.4035C122.397 96.8068 122.013 95.239 121.324 93.7975C120.635 92.356 119.657 91.0718 118.45 90.0249L89.2291 64.6957L93.2791 60.6457C95.4436 60.9549 97.6505 60.5753 99.5872 59.5604C101.524 58.5456 103.092 56.9471 104.07 54.9913C105.047 53.0356 105.385 50.8218 105.034 48.6636C104.684 46.5054 103.663 44.5123 102.117 42.9665L90.3333 31.1874C88.7873 29.6405 86.7937 28.6194 84.635 28.2688C82.4763 27.9183 80.262 28.2561 78.306 29.2343C76.35 30.2126 74.7515 31.7816 73.7371 33.7191C72.7226 35.6566 72.3437 37.8642 72.6541 40.029L52.0291 60.6499C50.4291 60.4207 48.7977 60.5676 47.2643 61.0789C45.731 61.5903 44.3379 62.452 43.1958 63.5957L43.1916 63.5915ZM85.9166 56.229L68.2416 73.904L59.3999 65.0665L77.0791 47.3874L85.9166 56.229ZM49.0833 72.4332C48.8896 72.2398 48.7359 72.0101 48.6309 71.7573C48.526 71.5044 48.4719 71.2334 48.4717 70.9597C48.4715 70.6859 48.5252 70.4148 48.6298 70.1618C48.7344 69.9089 48.8877 69.679 49.0812 69.4853C49.2746 69.2916 49.5043 69.1379 49.7571 69.0329C50.0099 68.928 50.281 68.8739 50.5547 68.8737C50.8284 68.8735 51.0995 68.9272 51.3525 69.0318C51.6055 69.1364 51.8354 69.2898 52.0291 69.4832L63.8166 81.2707C64.0156 81.4629 64.1743 81.6928 64.2835 81.9469C64.3927 82.2011 64.4501 82.4745 64.4525 82.7511C64.4549 83.0277 64.4022 83.3021 64.2975 83.5581C64.1927 83.8141 64.038 84.0467 63.8424 84.2423C63.6468 84.438 63.4142 84.5926 63.1582 84.6974C62.9021 84.8022 62.6278 84.8549 62.3512 84.8525C62.0746 84.8501 61.8012 84.7926 61.547 84.6834C61.2928 84.5742 61.0629 84.4155 60.8708 84.2165L49.0833 72.4332ZM81.4916 40.0207C81.2926 39.8285 81.1339 39.5986 81.0247 39.3444C80.9155 39.0903 80.8581 38.8169 80.8557 38.5403C80.8533 38.2637 80.906 37.9893 81.0107 37.7333C81.1155 37.4773 81.2702 37.2446 81.4658 37.049C81.6614 36.8534 81.894 36.6987 82.15 36.594C82.4061 36.4892 82.6804 36.4365 82.957 36.4389C83.2336 36.4413 83.507 36.4988 83.7612 36.608C84.0154 36.7172 84.2452 36.8759 84.4374 37.0749L96.2249 48.8624C96.4239 49.0545 96.5826 49.2844 96.6918 49.5386C96.801 49.7928 96.8585 50.0661 96.8609 50.3428C96.8633 50.6194 96.8106 50.8937 96.7058 51.1498C96.6011 51.4058 96.4464 51.6384 96.2508 51.834C96.0551 52.0296 95.8225 52.1843 95.5665 52.2891C95.3105 52.3938 95.0361 52.4465 94.7595 52.4441C94.4829 52.4417 94.2095 52.3843 93.9553 52.2751C93.7012 52.1659 93.4713 52.0072 93.2791 51.8082L81.4916 40.0207ZM108.333 100.983L83.2999 72.0999L84.1083 71.2874L112.996 96.3207C113.328 96.6209 113.597 96.9857 113.784 97.3929C113.971 97.8 114.074 98.241 114.085 98.689C114.097 99.137 114.017 99.5827 113.851 99.9989C113.684 100.415 113.435 100.793 113.118 101.11C112.802 101.427 112.424 101.676 112.007 101.842C111.591 102.008 111.145 102.088 110.697 102.077C110.249 102.065 109.808 101.963 109.401 101.775C108.994 101.588 108.629 101.32 108.329 100.987L108.333 100.983Z" fill="#80B049"/>
</svg>
