<svg width="162" height="150" viewBox="0 0 162 150" fill="none" xmlns="http://www.w3.org/2000/svg">
<g clip-path="url(#clip0_201_3488)">
<path d="M37.5 118.75V125C37.5 126.771 36.9 128.256 35.7 129.456C34.5 130.656 33.0167 131.254 31.25 131.25H25C23.2292 131.25 21.7438 130.65 20.5438 129.45C19.3438 128.25 18.7459 126.767 18.75 125V75L31.875 37.5C32.5 35.625 33.6188 34.1146 35.2313 32.9688C36.8438 31.8229 38.6417 31.25 40.625 31.25H109.375C111.354 31.25 113.152 31.8229 114.769 32.9688C116.385 34.1146 117.504 35.625 118.125 37.5L131.25 75V125C131.25 126.771 130.652 128.256 129.456 129.456C128.26 130.656 126.775 131.254 125 131.25H118.75C116.979 131.25 115.494 130.65 114.294 129.45C113.094 128.25 112.496 126.767 112.5 125V118.75H37.5ZM36.25 62.5H113.75L107.188 43.75H42.8125L36.25 62.5ZM46.875 100C49.4792 100 51.6938 99.0875 53.5188 97.2625C55.3438 95.4375 56.2542 93.225 56.25 90.625C56.25 88.0208 55.3375 85.8063 53.5125 83.9813C51.6875 82.1562 49.475 81.2458 46.875 81.25C44.2709 81.25 42.0563 82.1625 40.2313 83.9875C38.4063 85.8125 37.4959 88.025 37.5 90.625C37.5 93.2292 38.4125 95.4437 40.2375 97.2687C42.0625 99.0938 44.275 100.004 46.875 100ZM103.125 100C105.729 100 107.944 99.0875 109.769 97.2625C111.594 95.4375 112.504 93.225 112.5 90.625C112.5 88.0208 111.588 85.8063 109.763 83.9813C107.938 82.1562 105.725 81.2458 103.125 81.25C100.521 81.25 98.3063 82.1625 96.4813 83.9875C94.6563 85.8125 93.7459 88.025 93.75 90.625C93.75 93.2292 94.6625 95.4437 96.4875 97.2687C98.3125 99.0938 100.525 100.004 103.125 100Z" fill="#80B049"/>
</g>
<g clip-path="url(#clip1_201_3488)">
<path d="M133.072 39.6429H142.715C144.42 39.6429 146.055 40.3202 147.26 41.5258C148.466 42.7314 149.143 44.3666 149.143 46.0715V110.357C149.143 112.062 148.466 113.697 147.26 114.903C146.055 116.109 144.42 116.786 142.715 116.786H91.286C89.581 116.786 87.9459 116.109 86.7403 114.903C85.5347 113.697 84.8574 112.062 84.8574 110.357V46.0715C84.8574 44.3666 85.5347 42.7314 86.7403 41.5258C87.9459 40.3202 89.581 39.6429 91.286 39.6429H100.929" stroke="#80B049" stroke-width="10" stroke-linecap="round" stroke-linejoin="round"/>
<path d="M126.644 33.2144H107.358C103.808 33.2144 100.93 36.0925 100.93 39.6429V42.8572C100.93 46.4076 103.808 49.2858 107.358 49.2858H126.644C130.194 49.2858 133.073 46.4076 133.073 42.8572V39.6429C133.073 36.0925 130.194 33.2144 126.644 33.2144Z" stroke="#80B049" stroke-width="10" stroke-linecap="round" stroke-linejoin="round"/>
<path d="M100.93 84.643L113.787 94.2858L129.858 68.5715" stroke="#80B049" stroke-width="10" stroke-linecap="round" stroke-linejoin="round"/>
</g>
<defs>
<clipPath id="clip0_201_3488">
<rect width="72" height="150" fill="white"/>
</clipPath>
<clipPath id="clip1_201_3488">
<rect width="90" height="90" fill="white" transform="translate(72 30)"/>
</clipPath>
</defs>
</svg>
