<svg width="150" height="150" viewBox="0 0 150 150" fill="none" xmlns="http://www.w3.org/2000/svg">
<path d="M118.75 93.7499H106.25V81.25H118.75M125 125V137.5H100V125H106.25V112.5H100V99.9999H118.75V125M118.25 31.2499C117.602 29.4163 116.399 27.8296 114.809 26.7098C113.219 25.59 111.32 24.9925 109.375 24.9999H40.625C38.6801 24.9925 36.7811 25.59 35.1909 26.7098C33.6008 27.8296 32.3983 29.4163 31.75 31.2499L18.75 68.7499V118.75C18.75 120.408 19.4085 121.997 20.5806 123.169C21.7527 124.341 23.3424 125 25 125H31.25C32.9076 125 34.4973 124.341 35.6694 123.169C36.8415 121.997 37.5 120.408 37.5 118.75V112.5H68.75C68.75 100.897 73.3594 89.7687 81.5641 81.564C89.7688 73.3593 100.897 68.7499 112.5 68.7499C118.992 68.7246 125.404 70.178 131.25 72.9999V68.7499M40.625 93.7499C38.7708 93.7499 36.9582 93.2001 35.4165 92.17C33.8748 91.1398 32.6732 89.6757 31.9636 87.9626C31.2541 86.2495 31.0684 84.3645 31.4301 82.546C31.7919 80.7274 32.6848 79.0569 33.9959 77.7458C35.307 76.4347 36.9775 75.5418 38.796 75.1801C40.6146 74.8184 42.4996 75.004 44.2127 75.7136C45.9257 76.4231 47.3899 77.6248 48.42 79.1665C49.4502 80.7082 50 82.5207 50 84.375C50 86.8614 49.0123 89.2459 47.2541 91.0041C45.496 92.7622 43.1114 93.7499 40.625 93.7499ZM31.25 62.4999L40.625 34.3749H109.375L118.75 62.4999H31.25Z" fill="#80B049"/>
</svg>
