<svg width="45" height="45" viewBox="0 0 45 45" fill="none" xmlns="http://www.w3.org/2000/svg">
<rect width="44.8" height="44.8" rx="22.4" fill="#80B049"/>
<g clip-path="url(#clip0_801_373)">
<path d="M14 16C14 14.8969 14.8969 14 16 14H21V18C21 18.5531 21.4469 19 22 19H26V23.5H19.5C18.3969 23.5 17.5 24.3969 17.5 25.5V30H16C14.8969 30 14 29.1031 14 28V16ZM26 18H22V14L26 18ZM19.5 25H20.5C21.4656 25 22.25 25.7844 22.25 26.75C22.25 27.7156 21.4656 28.5 20.5 28.5H20V29.5C20 29.775 19.775 30 19.5 30C19.225 30 19 29.775 19 29.5V25.5C19 25.225 19.225 25 19.5 25ZM20.5 27.5C20.9156 27.5 21.25 27.1656 21.25 26.75C21.25 26.3344 20.9156 26 20.5 26H20V27.5H20.5ZM23.5 25H24.5C25.3281 25 26 25.6719 26 26.5V28.5C26 29.3281 25.3281 30 24.5 30H23.5C23.225 30 23 29.775 23 29.5V25.5C23 25.225 23.225 25 23.5 25ZM24.5 29C24.775 29 25 28.775 25 28.5V26.5C25 26.225 24.775 26 24.5 26H24V29H24.5ZM27 25.5C27 25.225 27.225 25 27.5 25H29C29.275 25 29.5 25.225 29.5 25.5C29.5 25.775 29.275 26 29 26H28V27H29C29.275 27 29.5 27.225 29.5 27.5C29.5 27.775 29.275 28 29 28H28V29.5C28 29.775 27.775 30 27.5 30C27.225 30 27 29.775 27 29.5V25.5Z" fill="white"/>
</g>
<defs>
<clipPath id="clip0_801_373">
<rect width="16" height="16" fill="white" transform="translate(14 14)"/>
</clipPath>
</defs>
</svg>
