<svg width="45" height="45" viewBox="0 0 45 45" fill="none" xmlns="http://www.w3.org/2000/svg">
<rect width="44.8" height="44.8" rx="22.4" fill="#80B049"/>
<path d="M26.6654 19.3333H17.332C16.2254 19.3333 15.332 20.2267 15.332 21.3333V24C15.332 24.7333 15.932 25.3333 16.6654 25.3333H17.9987V26.6667C17.9987 27.4 18.5987 28 19.332 28H24.6654C25.3987 28 25.9987 27.4 25.9987 26.6667V25.3333H27.332C28.0654 25.3333 28.6654 24.7333 28.6654 24V21.3333C28.6654 20.2267 27.772 19.3333 26.6654 19.3333ZM23.9987 26.6667H19.9987C19.632 26.6667 19.332 26.3667 19.332 26V23.3333H24.6654V26C24.6654 26.3667 24.3654 26.6667 23.9987 26.6667ZM26.6654 22C26.2987 22 25.9987 21.7 25.9987 21.3333C25.9987 20.9667 26.2987 20.6667 26.6654 20.6667C27.032 20.6667 27.332 20.9667 27.332 21.3333C27.332 21.7 27.032 22 26.6654 22ZM25.332 16H18.6654C18.2987 16 17.9987 16.3 17.9987 16.6667V18C17.9987 18.3667 18.2987 18.6667 18.6654 18.6667H25.332C25.6987 18.6667 25.9987 18.3667 25.9987 18V16.6667C25.9987 16.3 25.6987 16 25.332 16Z" fill="white"/>
</svg>
