<svg width="72" height="72" viewBox="0 0 72 72" fill="none" xmlns="http://www.w3.org/2000/svg">
<path d="M36 6.75C19.8717 6.75 6.75 19.8717 6.75 36C6.75 52.1283 19.8717 65.25 36 65.25C52.1283 65.25 65.25 52.1283 65.25 36C65.25 19.8717 52.1283 6.75 36 6.75ZM46.5905 43.4095C46.8082 43.6164 46.9823 43.8647 47.1025 44.1399C47.2228 44.4151 47.2867 44.7116 47.2905 45.0119C47.2944 45.3122 47.2381 45.6103 47.1249 45.8884C47.0118 46.1666 46.8441 46.4194 46.6317 46.6317C46.4194 46.8441 46.1666 47.0118 45.8884 47.1249C45.6103 47.2381 45.3122 47.2944 45.0119 47.2905C44.7116 47.2867 44.4151 47.2228 44.1399 47.1025C43.8647 46.9823 43.6164 46.8082 43.4095 46.5905L36 39.1823L28.5905 46.5905C28.1651 46.9946 27.5986 47.2166 27.0119 47.2091C26.4252 47.2016 25.8646 46.9652 25.4497 46.5503C25.0348 46.1354 24.7984 45.5748 24.7909 44.9881C24.7834 44.4014 25.0054 43.8349 25.4095 43.4095L32.8177 36L25.4095 28.5905C25.0054 28.1651 24.7834 27.5986 24.7909 27.0119C24.7984 26.4252 25.0348 25.8646 25.4497 25.4497C25.8646 25.0348 26.4252 24.7984 27.0119 24.7909C27.5986 24.7834 28.1651 25.0054 28.5905 25.4095L36 32.8177L43.4095 25.4095C43.8349 25.0054 44.4014 24.7834 44.9881 24.7909C45.5748 24.7984 46.1354 25.0348 46.5503 25.4497C46.9652 25.8646 47.2016 26.4252 47.2091 27.0119C47.2166 27.5986 46.9946 28.1651 46.5905 28.5905L39.1823 36L46.5905 43.4095Z" fill="#FF0000"/>
</svg>
