<svg width="48" height="48" viewBox="0 0 48 48" fill="none" xmlns="http://www.w3.org/2000/svg">
<path d="M13 10C11.68 10 10.56 10.84 10.16 12L6 24V40C6 40.5304 6.21071 41.0391 6.58579 41.4142C6.96086 41.7893 7.46957 42 8 42H10C10.5304 42 11.0391 41.7893 11.4142 41.4142C11.7893 41.0391 12 40.5304 12 40V38H22.6C22.2074 36.7027 22.0053 35.3553 22 34C22.0032 31.581 22.6332 29.2042 23.8284 27.1011C25.0236 24.9981 26.7434 23.2406 28.82 22H10L13 13H35L37.36 20.06C38.586 20.1878 39.7897 20.477 40.94 20.92L37.84 12C37.44 10.84 36.32 10 35 10H13ZM34 24C33.8778 23.9977 33.7587 24.0386 33.6636 24.1154C33.5685 24.1922 33.5035 24.3 33.48 24.42L33.1 27.06C32.5 27.32 31.92 27.64 31.4 28L28.92 27C28.7 27 28.44 27 28.3 27.26L26.3 30.72C26.18 30.94 26.22 31.2 26.42 31.36L28.54 33C28.4602 33.6643 28.4602 34.3357 28.54 35L26.42 36.64C26.3301 36.7171 26.2692 36.8225 26.2474 36.9389C26.2256 37.0553 26.2442 37.1756 26.3 37.28L28.3 40.74C28.42 41 28.68 41 28.92 41L31.4 40C31.92 40.36 32.48 40.7 33.1 40.94L33.48 43.58C33.52 43.82 33.72 44 34 44H38C38.22 44 38.44 43.82 38.48 43.58L38.86 40.94C39.46 40.68 40 40.36 40.54 40L43 41C43.26 41 43.52 41 43.66 40.74L45.66 37.28C45.7158 37.1756 45.7344 37.0553 45.7126 36.9389C45.6908 36.8225 45.6299 36.7171 45.54 36.64L43.4 35C43.44 34.66 43.48 34.34 43.48 34C43.48 33.66 43.46 33.34 43.4 33L45.52 31.36C45.6099 31.2829 45.6708 31.1775 45.6926 31.0611C45.7144 30.9447 45.6958 30.8244 45.64 30.72L43.64 27.26C43.52 27 43.26 27 43 27L40.54 28C40 27.64 39.46 27.3 38.84 27.06L38.46 24.42C38.4474 24.3061 38.3938 24.2006 38.3091 24.1233C38.2245 24.0461 38.1146 24.0022 38 24H34ZM13 26C13.7956 26 14.5587 26.3161 15.1213 26.8787C15.6839 27.4413 16 28.2044 16 29C16 29.7956 15.6839 30.5587 15.1213 31.1213C14.5587 31.6839 13.7956 32 13 32C12.2044 32 11.4413 31.6839 10.8787 31.1213C10.3161 30.5587 10 29.7956 10 29C10 28.2044 10.3161 27.4413 10.8787 26.8787C11.4413 26.3161 12.2044 26 13 26ZM36 31C37.66 31 39 32.34 39 34C39 35.66 37.66 37 36 37C34.32 37 33 35.66 33 34C33 32.34 34.34 31 36 31Z" fill="#80B049"/>
</svg>
