<svg width="77" height="70" viewBox="0 0 77 70" fill="none" xmlns="http://www.w3.org/2000/svg">
<path d="M41.158 64.6565C40.5081 64.6565 39.9909 64.1393 39.9909 63.4894V55.9818C39.9909 55.1756 39.341 54.5263 38.5353 54.5263H6.67745C5.87127 54.5263 5.22191 55.1762 5.22191 55.9818V63.4894C5.22191 64.1393 4.70469 64.6565 4.0548 64.6565C3.40492 64.6565 2.8877 64.1393 2.8877 63.4894V55.9818C2.8877 53.8882 4.58385 52.1921 6.67737 52.1921H38.5352C40.6289 52.1921 42.3249 53.8883 42.3249 55.9818V63.4894C42.3249 64.1274 41.7959 64.6565 41.1578 64.6565H41.158Z" fill="#80B049"/>
<path d="M44.0329 69.8181H1.16711C0.517219 69.8181 0 69.2885 0 68.651V64.6808C0 63.3816 1.05861 62.323 2.35778 62.323H42.8422C44.1414 62.323 45.1999 63.3816 45.1999 64.6808V68.651C45.2005 69.2885 44.6833 69.8181 44.0334 69.8181H44.0329ZM2.33445 67.4838H42.867V64.6807L2.35783 64.6447L2.33445 67.4838Z" fill="#80B049"/>
<path d="M38.8838 30.2359C38.5347 30.2359 38.1862 30.1398 37.873 29.9593L34.2998 27.8421C33.7466 27.5172 33.5661 26.7953 33.8905 26.2421C34.2154 25.6889 34.9373 25.5084 35.4905 25.8328L38.7631 27.7696L42.5287 21.4174L39.2443 19.4806C38.6911 19.1557 38.5107 18.4338 38.8351 17.8806C39.16 17.3274 39.8819 17.1469 40.4351 17.4713L44.0084 19.5885C44.9467 20.1659 45.2598 21.3813 44.706 22.3196L40.6037 29.2615C40.3389 29.7185 39.906 30.0435 39.3888 30.1756C39.2207 30.2116 39.052 30.2358 38.8839 30.2358L38.8838 30.2359Z" fill="#80B049"/>
<path d="M73.4843 47.4518C72.8468 47.4518 72.2211 47.2832 71.6915 46.9588L39.8584 28.2029C39.3052 27.878 39.1247 27.1561 39.4491 26.6029C39.774 26.0497 40.4959 25.8692 41.0491 26.1936L72.8713 44.9494C73.4127 45.2744 74.1705 45.0816 74.4837 44.5402C74.6523 44.2636 74.7001 43.9504 74.6158 43.6379C74.5315 43.3371 74.3392 43.0723 74.0744 42.916L42.2537 24.1725C41.7005 23.8476 41.5076 23.1257 41.8444 22.5725C42.1693 22.0193 42.8912 21.8388 43.4444 22.1632L75.2666 40.9191C76.0727 41.3885 76.65 42.1581 76.8907 43.0728C77.1195 43.9869 76.9868 44.9258 76.5056 45.7314C75.8922 46.79 74.7375 47.4518 73.486 47.4518L73.4843 47.4518Z" fill="#80B049"/>
<path d="M17.0233 24.1722C16.8187 24.1722 16.614 24.1238 16.4336 24.0159C15.8804 23.6909 15.6999 22.9691 16.0243 22.4159L26.8279 4.09311C27.1529 3.53991 27.8747 3.34708 28.428 3.68384C28.9812 4.00878 29.174 4.73064 28.8372 5.28388L18.0218 23.5956C17.8053 23.9684 17.4202 24.173 17.0233 24.173L17.0233 24.1722Z" fill="#80B049"/>
<path d="M31.9663 32.9912C31.7617 32.9912 31.557 32.9428 31.3766 32.8349C30.8234 32.5099 30.6305 31.7881 30.9673 31.2348L41.7833 12.9121C42.1082 12.3589 42.8301 12.1784 43.3833 12.5028C43.9365 12.8278 44.117 13.5496 43.7926 14.1029L32.9648 32.4146C32.7483 32.7879 32.3632 32.992 31.9663 32.992L31.9663 32.9912Z" fill="#80B049"/>
<path d="M43.1787 14.7042C42.6131 14.7042 42.0239 14.5598 41.5062 14.2472L27.7909 6.16226C27.0331 5.717 26.4917 4.99515 26.2629 4.1412C26.0465 3.28723 26.1668 2.39665 26.6121 1.62653C27.5385 0.0506912 29.5714 -0.467119 31.1478 0.459426L44.863 8.54434C45.6209 8.98959 46.1623 9.71145 46.391 10.5654C46.6075 11.4194 46.4872 12.3099 46.0419 13.0801C45.4162 14.115 44.3092 14.7042 43.1787 14.7042ZM42.6851 12.2378C43.1545 12.5144 43.7561 12.3581 44.0327 11.8887C44.1648 11.6599 44.2013 11.3957 44.1412 11.1427C44.081 10.8903 43.9124 10.6733 43.6841 10.5411L29.9689 2.45623C29.74 2.3241 29.4758 2.28758 29.2228 2.34774C28.9699 2.42078 28.7534 2.57708 28.6213 2.80587C28.4892 3.03468 28.4526 3.29892 28.5128 3.5519C28.5729 3.80433 28.7416 4.02133 28.9699 4.15345L42.6851 12.2378Z" fill="#80B049"/>
<path d="M30.3174 36.5166C29.74 36.5166 29.1626 36.3721 28.6448 36.0595L14.9296 27.9746C14.1718 27.5293 13.6304 26.8075 13.4016 25.9535C13.1852 25.0996 13.3055 24.209 13.7507 23.4389C14.6772 21.863 16.7101 21.3335 18.2865 22.2717L32.0017 30.3567C33.5775 31.2832 34.107 33.316 33.1688 34.8924C32.5673 35.9268 31.4602 36.5166 30.3174 36.5166ZM29.8243 34.0379C30.0531 34.17 30.3174 34.2066 30.5703 34.1464C30.8228 34.0863 31.0398 33.9176 31.1719 33.7012C31.4485 33.2317 31.2922 32.6302 30.8228 32.3536L17.1075 24.2687C16.8787 24.1365 16.6145 24.1 16.3615 24.1602C16.1091 24.2203 15.8921 24.389 15.7599 24.6172C15.6278 24.8461 15.5913 25.1103 15.6515 25.3633C15.7116 25.6157 15.8803 25.8327 16.1085 25.9648L29.8243 34.0379Z" fill="#80B049"/>
<path d="M22.6056 50.4119C21.9557 50.4119 21.4385 49.8947 21.4385 49.2448V40.3177C21.4385 39.6679 21.9557 39.1506 22.6056 39.1506C23.2555 39.1506 23.7727 39.6679 23.7727 40.3177V49.2448C23.7722 49.8942 23.2431 50.4119 22.6056 50.4119Z" fill="#80B049"/>
<path d="M27.0448 51.0499C26.8284 51.0499 26.5996 50.9897 26.4073 50.8576C25.8659 50.4967 25.7214 49.7748 26.0823 49.2452L31.1235 41.6539C31.4844 41.1125 32.2063 40.968 32.7359 41.3289C33.2773 41.6899 33.4218 42.4117 33.0609 42.9414L28.0197 50.5327C27.7909 50.8571 27.4299 51.0499 27.0448 51.0499Z" fill="#80B049"/>
<path d="M18.1543 51.05C17.7816 51.05 17.4083 50.8695 17.18 50.5328L12.1389 42.9415C11.7779 42.4001 11.9342 41.6782 12.4638 41.329C13.0052 40.9681 13.7271 41.1244 14.0762 41.654L19.1174 49.2453C19.4783 49.7867 19.322 50.5085 18.7924 50.8577C18.5991 50.9775 18.3826 51.05 18.1543 51.05Z" fill="#80B049"/>
</svg>
