<svg width="150" height="150" viewBox="0 0 150 150" fill="none" xmlns="http://www.w3.org/2000/svg">
<path d="M124.501 38.8129C124.052 38.2998 123.501 37.8849 122.884 37.5942C122.267 37.3036 121.597 37.1434 120.915 37.1237C110.323 36.8468 96.9197 25.5206 88.0582 21.076C82.5843 18.3391 78.9705 16.5345 76.2566 16.0591C75.7056 15.9788 75.1457 15.9803 74.5951 16.0637C71.8812 16.5391 68.2674 18.3437 62.7982 21.0806C53.9366 25.5206 40.5336 36.8514 29.9412 37.1237C29.259 37.1444 28.5882 37.305 27.9705 37.5956C27.3528 37.8862 26.8014 38.3005 26.3505 38.8129C25.4157 39.8705 24.9335 41.2527 25.0074 42.6622C27.2828 88.9222 43.8751 117.551 72.9889 134.19C73.7459 134.619 74.5859 134.841 75.4212 134.841C76.2566 134.841 77.0966 134.619 77.8582 134.19C106.972 117.551 123.56 88.9222 125.84 42.6622C125.918 41.2529 125.437 39.8697 124.501 38.8129ZM75.4259 98.9468C68.0116 98.9468 60.9011 96.0015 55.6584 90.7588C50.4158 85.5162 47.4705 78.4056 47.4705 70.9914C47.4705 63.5772 50.4158 56.4666 55.6584 51.2239C60.9011 45.9813 68.0116 43.036 75.4259 43.036C82.8401 43.036 89.9507 45.9813 95.1933 51.2239C100.436 56.4666 103.381 63.5772 103.381 70.9914C103.381 78.4056 100.436 85.5162 95.1933 90.7588C89.9507 96.0015 82.8401 98.9468 75.4259 98.9468ZM86.872 54.8791L59.3136 82.4375C56.9144 79.1025 55.62 75.0998 55.612 70.9914C55.6193 65.7387 57.7092 60.7032 61.4235 56.989C65.1377 53.2747 70.1732 51.1849 75.4259 51.1775C79.6997 51.1775 83.6274 52.5668 86.872 54.8791ZM91.5336 59.5452C93.8459 62.7852 95.2397 66.7222 95.2397 70.9914C95.2324 76.2441 93.1425 81.2796 89.4283 84.9938C85.714 88.708 80.6786 90.7979 75.4259 90.8052C71.3174 90.7979 67.3145 89.5034 63.9797 87.1037L91.5336 59.5452Z" fill="#80B049"/>
</svg>
