<svg width="150" height="150" viewBox="0 0 150 150" fill="none" xmlns="http://www.w3.org/2000/svg">
<path d="M128.125 124.062L40.0625 36L15.0625 11L6.9375 18.75L28.5625 40.375L18.75 68.75V118.75C18.75 120.408 19.4085 121.997 20.5806 123.169C21.7527 124.342 23.3424 125 25 125H31.25C32.9076 125 34.4973 124.342 35.6694 123.169C36.8415 121.997 37.5 120.408 37.5 118.75V112.5H100.688L130.25 142.062L138.188 134.125L128.125 124.062ZM40.625 93.75C38.1386 93.75 35.754 92.7623 33.9959 91.0041C32.2377 89.246 31.25 86.8614 31.25 84.375C31.25 81.8886 32.2377 79.504 33.9959 77.7459C35.754 75.9877 38.1386 75 40.625 75C43.1114 75 45.496 75.9877 47.2541 77.7459C49.0123 79.504 50 81.8886 50 84.375C50 86.8614 49.0123 89.246 47.2541 91.0041C45.496 92.7623 43.1114 93.75 40.625 93.75ZM31.25 62.5L36.125 47.9375L50.6875 62.5H31.25ZM109.375 34.375L118.75 62.5H82.5L100.75 80.75C103.125 76.0625 108.562 74.125 113.25 76.3125C117.938 78.5625 119.875 84.1875 117.687 88.8125C116.75 90.625 115.188 92.3125 113.25 93.25L131.25 111.25V68.75L118.25 31.25C116.938 27.5 113.375 25 109.375 25H45L54.375 34.375H109.375Z" fill="#80B049"/>
</svg>
