<svg width="64" height="64" viewBox="0 0 64 64" fill="none" xmlns="http://www.w3.org/2000/svg">
<mask id="mask0_518_4876" style="mask-type:luminance" maskUnits="userSpaceOnUse" x="2" y="2" width="60" height="60">
<path d="M31.9987 58.6666C35.5013 58.6711 38.9702 57.9834 42.2062 56.643C45.4421 55.3026 48.3813 53.3359 50.8547 50.8559C53.3347 48.3825 55.3014 45.4434 56.6418 42.2074C57.9822 38.9715 58.6699 35.5025 58.6654 31.9999C58.6699 28.4974 57.9821 25.0285 56.6417 21.7925C55.3013 18.5566 53.3346 15.6174 50.8547 13.1439C48.3813 10.664 45.4421 8.69727 42.2062 7.35685C38.9702 6.01644 35.5013 5.32874 31.9987 5.33327C28.4962 5.32881 25.0272 6.01654 21.7913 7.35696C18.5554 8.69737 15.6162 10.664 13.1427 13.1439C10.6628 15.6174 8.69615 18.5566 7.35574 21.7925C6.01532 25.0285 5.32759 28.4974 5.33205 31.9999C5.32752 35.5025 6.01522 38.9715 7.35563 42.2074C8.69605 45.4434 10.6628 48.3825 13.1427 50.8559C15.6162 53.3358 18.5554 55.3025 21.7913 56.6429C25.0272 57.9833 28.4962 58.6711 31.9987 58.6666Z" fill="white" stroke="white" stroke-width="6" stroke-linejoin="round"/>
<path d="M21.332 32L29.332 40L45.332 24" stroke="black" stroke-width="6" stroke-linecap="round" stroke-linejoin="round"/>
</mask>
<g mask="url(#mask0_518_4876)">
<path d="M0 0H64V64H0V0Z" fill="#80B049"/>
</g>
</svg>
